# xmcd
#
# Track frame offsets:
# 151
# 12876
# 25458
# 46385
# 59380
# 73995
# 90076
# 110444
# 146789
# 158891
# 183283
# 186027
#
# Disc length: 2714 seconds
#
# Revision: 0
# Processed by: cddbd v1.4PL0 Copyright (c) Steve Scherf et al.
# Submitted via: Audion 3.0.2 (http://www.panic.com/audion/)
#
DISCID=a00a980c
DTITLE=Elk City - Status
DYEAR=1900
DGENRE=
TTITLE0=Dreams of Steam
TTITLE1=Mysteries Unknown
TTITLE2=Love's Like a Bomb
TTITLE3=Chocolate Girl
TTITLE4=Freeze Two Over Eight
TTITLE5=Groundbreaking
TTITLE6=Solar Girl
TTITLE7=Fall Out of Reach
TTITLE8=California Dreamin' 
TTITLE9=Tell the People
TTITLE10=Reprise
TTITLE11=Don't Cha Wait
EXTD=
EXTT0=
EXTT1=
EXTT2=
EXTT3=
EXTT4=
EXTT5=
EXTT6=
EXTT7=
EXTT8=
EXTT9=
EXTT10=
EXTT11=
PLAYORDER=
